<?xml version="1.0" encoding="utf-8"?>
<!-- Generator: Adobe Illustrator 22.0.1, SVG Export Plug-In . SVG Version: 6.00 Build 0)  -->
<svg version="1.1" xmlns="http://www.w3.org/2000/svg" xmlns:xlink="http://www.w3.org/1999/xlink" x="0px" y="0px"
	 viewBox="0 0 1200 1100" style="enable-background:new 0 0 1200 1100;" xml:space="preserve">
<style type="text/css">
	.st0{fill:#FFFFFF;stroke:#FFFFFF;stroke-miterlimit:10;}
	.st1{fill:#00CC99;stroke:#FFFFFF;stroke-width:3;stroke-miterlimit:10;}
	.st2{fill:#FFFFFF;}
	.st3{fill:#00CC99;}
	.st4{fill:#FFFFFF;stroke:#00CC99;stroke-width:3;stroke-miterlimit:10;}
	.st5{fill:#FFFFFF;stroke:#00CC99;stroke-width:7;stroke-miterlimit:10;}
	.st6{fill:#00CC99;stroke:#FFFFFF;stroke-width:7;stroke-miterlimit:10;}
	.st7{fill:#00CC99;stroke:#FFFFFF;stroke-miterlimit:10;}
	.st8{fill:#00CC99;stroke:#00CC99;stroke-width:3;stroke-miterlimit:10;}
	.st9{fill:#FFFFFF;stroke:#FFFFFF;stroke-width:3;stroke-miterlimit:10;}
</style>
<g id="achtergrond">
</g>
<g id="Layer_1">
	<g>
		<rect x="602" y="374.6" class="st0" width="7.6" height="7.6"/>
		<path class="st1" d="M612.7,374.3c0,0-1.4,58,0,63.7c1.4,5.7,2.4,21.4,5.7,24.3c3.3,2.9,4.8,4.8,6.2,9c1.4,4.3,2.9,6.7,5.7,6.7
			c2.9,0,2.4,1.9,7.6,3.3s5.7,0.5,9,5.7s2.4,7.6,6.7,9s10.5,5.7,0,3.3c-10.5-2.4-14.7-4.3-22.8-6.2s-6.7-2.9-14.3-3.8
			c-7.6-1-20.5-3.8-20.5-3.8s4.3-1.9-4.3-0.5c-8.6,1.4-12.4,1.4-18.1,3.8c-5.7,2.4-6.7,3.3-10.9,3.3c-4.3,0-5.2-1-9.5,0.5
			c-4.3,1.4-5.7,2.4-10,2.9c-4.3,0.5-8.1,1.4-10.5,1.4c-2.4,0-10,1-10,1s23.8-8.6,24.7-10.9s13.3-10.9,17.1-19.5
			c3.8-8.6,5.2-23.8,5.2-23.8s3.8-26.2,2.9-31.4c-1-5.2,1.4-39.5-1-41.4c-2.4-1.9-0.5-6.2-3.3-9c-2.9-2.9-13.3-11.9-20.5-19.5
			l-4.3,2.9l-8.6,1l-8.1,0.5l-8.1,1v-3.3l10.9-1.9l15.7-4.8l-1-2.3l-3.8-4.8l-4.3-5.2l-3.8-3.3h-5.7l-2.4-5.2h8.1v-6.2l7.6,8.1
			l5.7,6.7h2.9l-1-11.9l3.3-0.5l3.3-2.4v14.7l8.1,10.1c0,0,3.8,6.6,9.5,7.5s6.7,6.7,9,1.9c2.4-4.8,1.9-28.1,4.3-28.1
			s-2.9-8.6-2.9-8.6s-17.1-7.6-19.5-5.7s2.4-1.9,2.4-1.9h9h4.8v-5.2h2.4l2.4-2.9h2.9l4.8,14.7c0,0,10-12.8,10-19.5h3.3
			c0,0-7.6,22.4-7.1,25.7c0.5,3.3,1,7.1,2.9,8.6s5.9-8.6,5.9-8.6l9.8-16.7l1.4-12.4l3.8-2.4h3.3l-2.9,19l9.5-9.5l2.9,3.8l-7.1,12.8
			l13.3-9l2.4,3.3c0,0-22.4,13.8-24.7,26.2l-1.9,6.7l-0.5,3.3l17.6-13.3l14.7-7.1l3.3,0.5l-1,6.7c0,0-16.7,4.4-21.4,10.1
			c-4.8,5.6-8.1,12.8-8.1,12.8L617,360l-2.4,7.1L612.7,374.3z"/>
		<polygon class="st2" points="571.8,371 562.7,376.2 558.9,373.6 556.5,376.2 551.3,376.2 545.6,381 542.3,381 549.9,371 
			542.3,368.6 542.3,362.9 538.9,362.9 538.9,358.6 532.8,362.9 530.9,358.6 527.1,361.5 523.7,358.6 528,354.8 523.7,354.8 
			527.1,346.7 543.7,345.3 548,342.4 568.4,362 		"/>
		<polygon class="st2" points="519,347.7 514.2,344.8 523.7,338.1 527.5,335.4 523.7,331 516.6,328.2 527.1,322 532.8,322 
			544.7,335.4 545.6,337.7 		"/>
		<polygon class="st2" points="527.5,316.8 527.5,311.2 529.9,311.2 532.8,310.6 532.8,316.8 		"/>
		<polygon class="st3" points="548.9,325.3 548,313.4 547.7,310.6 545.6,310.6 543.4,312.2 540.2,310.6 538.6,310.6 536.1,310.6 
			534.8,308.4 532.8,307.1 532.8,310.6 540.4,318.7 546.1,325.3 		"/>
		<path class="st4" d="M538.3,293.1l-5.6,6.3l-2.6,1.6v3.2l-2.6,2.9l2.4,4.1l2.9-0.6v-3.5l3.3,3.5l7.3,1.6l4.4-1.6l0.2,2.9l3.3-0.5
			l3.3-2.4v-4.8h3.3l3.8-2.5l3.8-2.7l6.2-4.3l3-0.3l3.2,1.3l1.4-1.9h2.4l2.4-2.9h2.9l4.8-1.9h2.1l3.2,1.3l3.4,1.2l1.3-5.3h3.3h4h2.9
			v-2.2h3.8l2.2-1.1l3.8-2.4h3.3l3,1.6v4.1l3.6,3.8l2.9,3.8l3,1l3.2,2.9l2.4,3.3l4.6,3l2.5-0.3l2.9-1.6l1.9,1l2.5-0.6V302l1.8-1.3h3
			l-1.9-3l-2.5-3.6l4.4,3.6h2.2h1.9c0,0,1.3-0.2,2.5,0c1.3,0.2,1.3,0.2,1.3,0.2l6.3-4.1v-1.9c0,0,4.8-0.6,2.2-4.8
			c-2.5-4.1-4.8-3.8-4.8-3.8l-1.9-3.2c0,0-1.3-3.5,3.2-6.7l-4.8-4.1c0,0,3.2-3.2,1.9-5.1c-1.3-1.9-8.6-3.2-8.6-3.2s2.5-4.1-0.6-6.7
			c-3.2-2.5-3.9,0-3.9,0l-5-1.1h-4.1l-1.9,1.4c0,0,1.6-4.8-0.3-4.4s-4.4,1.6-4.4,1.6l-0.6-5.7l-2.2-2.2l0.3-3.5l-7-2.9h-7l-4.4-4.4
			l0.3,5.1l-3.2-0.3l-3.2,0.3l-2.2,1.9l-1.6-1.9l-1.6-1h-2.5l-2-0.6c0,0-0.2,5.4,1.7,8.9c1.9,3.5,1.1,7.9-1.7,8.9
			c-2.8,1-10.4,1.6-9.4,5.7s0.3,7.3,0.3,7.3l-3.2,1.6c0,0-2.6-4.1-5.3-3.5c-2.6,0.6-3.9,1.6-3.9,1.6s-0.3-3.2-2.9-2.2
			c-2.5,1-3.5,2.2-3.5,2.2l-2.2-1.6l-4.9-0.6l-4.6-1.3l-2.2,1l-3.2,1.3l-3.2-0.3l-1,2.5l-0.6,3.2l-3.5-1l-1.6,0.6l-1.6,0.6l-2.6,1.7
			l-2.1,2.7l-2.5,3.2l-3.8,0.6l1.6,5.1l-2.5,2.9l0.6,2.5L538.3,293.1z"/>
		<path class="st5" d="M527.5,307.1l2.6-2.9v-3.2l-6.4-2.2h-1.6L519,296c0,0-2.9-5.4-6.7-4.1c0,0-2.9,1.3-3.2,3.5c0,0-5.1-1-5.4,1.3
			c-0.3,2.2,0,4.1,0,4.1l-4.4,3.8v2.5l1.3,3.5l-5.7,5.6c0,0-4.4,2.9-2.9,7.1s4.4-1.3,4.4-1.3l1.3,2.8l-2.9,4.8l-3.2,5.2
			c0,0,2.9-0.7,2.9,0.5s0.3,4.1,0.3,4.1v5.1c0,0-1,5.4-1,6.3c0,1-2.2,6.7-2.2,6.7v7l2.9,5.4l3.2,1.6h3.5l5.7,2.5h4
			c0,0-1.1,4.1,0,5.1c1.1,1,0,6.3,0,6.3v7.3c0,0-0.2,5.4,5.2,2.9s7.6-1.9,7.6-1.9l3.8-0.6l2.6-1.9l5-6l4.4-2.5l2.7-1.6l7.6-10
			l-7.6-2.4v-5.7h-3.3v-4.3l-6.2,4.3l-1.9-4.3l-3.8,2.9l-3.3-2.9l4.3-3.8h-4.3l3.3-8.1l-8.1,1l-4.8-2.9l13.3-9.4l-3.8-4.4l-7.1-2.9
			l10.5-6.2l-2.4-5.2h2.9v-5.6h2.4L527.5,307.1z"/>
		<path class="st4" d="M648.4,318.2l1.6-7.6h6h3.4l4.2-3.5h2.5h3.8l1.3-3.8c0,0,0-1.9,3.8-1.9s3.8,0,3.8,0l2.2-5.1
			c0,0-0.3-6.4,1.6-4.6c1.9,1.8,4.4,4.6,4.4,4.6v1.9v3.8c0,0,1.3-1.3,2.9,0.6c1.6,1.9,0,4.4,0,4.4l2.2,3.5h5.7l1.6,2.9l-2.5,3.3
			l-0.6,3.6l3.2,1.6l2.2,3.3v2.7v2.9l4.4,7.3l-5.4-2.8l-0.3,2.8l-0.3,5.8l-1.6,3.7v3.2l-1,3.2l-2.5,3.2l-2.9-1.6v1.6l-1.9,1.9
			l-3.5,4.4h-3.8h-3.4v3.8l-2.3,3.8c0,0,2.5,2.9-1.6,4.1c-4.1,1.3-4.8-2.9-4.8-2.9s-2.9-1.6-6.7,1.3c-3.8,2.9-4.9-2.5-4.9-2.5
			l-2.7-0.3c0,0-5.7-2.9-4.8-6.7c1-3.8-2.9,5.7-7.6,5.4c-4.8-0.3-2.9-10.8-2.9-10.8l-3.5-1.9v-6.7v-2.5l-1.6-3.7v-3.9l2.2-2.2l0.6-3
			l-2.9-3.3l2.7-2.1l11.7-4l1-6.7L648.4,318.2z"/>
		<polygon class="st6" points="587,292.5 591.8,307.2 597.5,298.8 600.4,293 597,291.9 593.8,290.6 591.8,290.6 		"/>
		<polygon class="st4" points="605.1,288.2 611.9,288.2 611.9,286 615.7,286 617.9,284.9 616.5,297.2 600.8,322.5 599,319.6 
			598.4,316.7 597.9,313.9 600.4,302.8 		"/>
		<polygon class="st0" points="634.6,295.3 627.4,308.2 640.8,299.2 637.6,296.3 		"/>
		<polygon class="st0" points="625.1,282 622.2,301.1 631.7,291.5 627.4,286.1 628.1,283.6 		"/>
		<polygon class="st4" points="676.6,291.9 681,296.3 678.8,301.4 675,301.4 672.5,301.8 671.2,303.3 669.9,307.1 666.1,307.1 
			663.6,307.1 659.4,310.6 650,310.6 648.4,318.2 639.5,322.5 633.6,325.3 631.7,326.8 629.2,328.7 624.5,332.2 616,338.6 
			618.4,328.6 621.3,322 625.5,316.8 631.7,310.6 643.1,302.5 		"/>
		<polygon class="st4" points="554.6,310.6 554.6,305.8 558,305.8 563.2,302.5 566.9,302.5 571.1,303.7 573.9,304.6 578.8,306.5 
			582.7,308.2 585.6,313.7 585.6,316.8 584,322.5 583.5,327.4 582.6,338.6 581.3,344.8 579.3,346.7 576.9,345.1 570.1,342.3 
			564,337.2 554.6,325.3 		"/>
		<polygon class="st7" points="571.8,296.3 574.8,296 578,297.2 579.4,300.6 565.6,300.6 		"/>
		<path class="st4" d="M636.3,331.5l-2.2,0.3l-4.8,3.6l-5.9,8.6l-2.2,4.2l-3.8,10.5l-2,5.9l-1.6,5.5l-1.1,4.3v6.7l6.7,3.8l2.9,2.4
			l4.8,2.6l3.6,2.4c0,0,4,3.1,5.8,1c1.8-2.1,4.4-2,4.4-2s0.2-1.1,2.9-1.8c2.6-0.7,2.6-1.2,3.8-2.6c1.2-1.4,1.4-3.8,3.1-3.1
			c1.7,0.7,4.8,3.6,7.8,2.4s5.2,1.2,8.6-0.7c3.3-1.9,10-4.3,10-4.3s5.7-1.4,7.6-2.9c1.9-1.4,6.2-3.3,6.2-5.2c0-1.9,0-5.5,0-5.5
			l4.3-0.2l1.9-1.4l2.9-0.2l2.6,0.2l1.7,1.4l3.1-2.6l-5.5-2.9l4.4-2.4v-2.6v-1.4l7.5-0.5v-2.6l1.2-3.1l1.7-1.4l-4.5-1
			c0,0,5-2.1,4.5-4.2c-0.5-2.1-1.9-3.8-1.9-3.8s1.9-5.5,0.2-7.1c-1.7-1.7-3.3-2.4-3.3-2.4s3.3-0.5,2.1-3.8c-1.2-3.3-5.7-8.6-5.7-8.6
			l-4.3-3.1l-4.1-0.2l-2.5,3.3l-0.6,3.6l3.2,1.6l2.2,3.3v2.7v2.9l3.3,5.3l1.2,1.9l-5.4-2.8l-0.3,2.8l-0.2,4.3l-0.1,1.5l-1.6,3.7v3.2
			l-1,3.2l-2.5,3.2l-2.9-1.6v1.6l-1.9,1.9l-3.5,4.4h-3.8h-3.4v3.8l-2.3,3.8l0.4,2.9l-2,1.2l-1.6,0.2l-1.6-0.5l-1.5-2.6L669,372
			l-2.9,0.6l-1.9,1.1l-1.5,0.8l-2.1-0.7l-1.2-2.6l-2.7-0.3l-2.3-1.5l-1.4-1.4l-1.1-3.8l-3.3,3.3l-2.3,1.7l-2,0.4l-1.7-0.8l-1.7-4.2
			l0.6-5.8l-3.5-1.9v-9.2l-1.6-3.7v-3.9l2.2-2.2l0.6-3L636.3,331.5z"/>
		<path class="st4" d="M713.5,325.3l2.9,1.4l3.3-1.4h3.2l2.5-2.9l-2.9-1.7l-4.4,1.3l2.9-5.2h-3.2l-2.9-0.6l1.5-2.5l3.1-0.2v-1.6
			v-3.6c0,0,4,0.5,1.5-2.7h-4.6c0,0,5-3.8,3.1-10.1c-2-6.3-5.9-8.9-5.9-8.9s1.4-5.1-1.4-7.3c0,0-4.4-1.9-8.9,0v-7.9h2.9v-3.5v-4.1
			h-2.9v-2.9l-1.6-1.9h-2.9l2.2-5.1V250h-4.1v-2.2h-4.1l-1.6-2.2v-2.9h-3.5h-1.9l-8.9-3.5l-9.5-1.9c0,0-5.7-1.3-10.1,2.9
			c-4.4,4.1-9.2,10.1-9.2,10.1l0.8,0.4l0,2l-0.5,2l1.9-1.4h4.1l5,1.1l0.8-1l1.4-0.1l1.8,1l1,1.1l0.6,1.8l-0.1,1.5l-0.8,2.3l3.3,0.7
			l2.5,0.8l1.5,0.6l1.3,1l0.3,1.2l-0.4,1.4l-0.8,1.2l-1,1.2l4.8,4.1l-2,1.9l-1,1.8l-0.3,2.1l0.2,0.9l1.9,3.2l1.3,0.3l1.8,1.3
			l1.1,1.3l0.6,0.9l0.7,1.9l-0.4,1.6l-1,0.8l-1.5,0.5l4.4,4.4l0.1-3l0.3-1.5l0.4-0.5h0.4l0.4,0.3l4.4,4.6v5.7l1.1-0.4l0.7,0.2
			l1.1,0.9l0.5,0.8l0.2,1l-0.1,1.1l-0.6,1.6l2.2,3.5h5.7l1.6,2.9l4.1,0.2l4.3,3.1l2.2,2.7l1.4,1.9l1.2,1.9L713.5,325.3z"/>
		<path class="st4" d="M658.8,239v-7.1l-0.9-1.3l-1.2-0.8v-4.8l-0.6-0.8l-0.7-0.7h-1h-2.1h-0.8l-0.6-2l1.1-1.2v-1.3l-1.1-0.8h-1
			h-1.4l-1,0.7l-1.2-1.9h-1.1h-1.8l-1.3,1.2l-1.2,1.1v1h-1l-1.2-0.6l-0.8-0.7l-1.2-0.1c0,0-1.2,0.4-1.7,1c-0.5,0.6,0,2.4,0,2.4
			l-1.8-1.9l-1.7-1.3c0,0-1-1.3-2-0.5c-1.1,0.8-1.4,2-1.4,2v2.7v2c0,0-3.1-4.8-4.5-3.4c-1.4,1.3-1.5,3.1-1.5,3.1v1.5l-0.7,1.1
			l-5.5-8.9c0,0,1-4.2-0.6-4c-1.5,0.1-3,0.5-3,0.5l-0.8,0.6l-1.5-0.2v-2.6l1.4-2c0,0-1.8-1.7-1.4-1.8c0.4-0.1-2.1,0-2.1,0l-1.2,1.4
			l-1.2,0.7c0,0-0.2-5.8-2.9-5.3c-2.7,0.5-2.2,1.6-2.2,1.6l-1.3-1.6l-2.4-3l-0.8-1c0,0-2.1-1.4-2.1,1.4c0,2.9-1.6,1.3-1.6,1.3
			l-1.9-3.1h-1.3l-1.7-0.9h-2.5l-1,1.6l-4.6-1.6v4.1h-6.9l-6.9,2.9c0,0-23.3,10.9-24.7,20.5c-1.4,9.5-1.4,9.5-1.4,9.5l-2.1,3.3v2.9
			l2.1,1.9l1.4,3.6c0,0-4.3,0.5-3.6,5.2c0.7,4.8,3.6,7.1,3.6,7.1s1.7-2.4,0,4.8c-1.7,7.1,0,8.6,0,8.6l4,2.3l2.9-3.6l2.6-1.7l1.6-0.6
			l1.6-0.6l3.5,1l0.2-1.2l0.2-1.1l0.2-0.9l0.4-1.1l0.5-1.5l1.1,0.1l2.1,0.2l5.4-2.2l2.3,0.6l1.2,0.3l1.8,0.4l1.4,0.2l1.5,0.2
			l1.3,0.2l2.2,1.6l0.5-0.5l1-0.7l1.1-0.6l1-0.4l1-0.2l0.8,0.2l0.6,0.7l0.4,1l0.1,0.5l1.4-0.8l0.9-0.4l1.5-0.4l0.8-0.1l0.6,0.1
			l0.6,0.2l0.6,0.4l0.7,0.6l0.8,0.8l1.2,1.5l2.2-1.1l1-0.5l0.2-2.1l0-1.7l-0.1-1.3l-0.3-1.6l-0.1-0.5l0-1.1l0.4-1l0.9-0.9l1-0.6
			l1.7-0.7l1.9-0.5l2.1-0.5l1.5-0.4l1.2-0.7l0.9-1.2l0.6-2l0-2.2l-0.5-1.8l-1-2.1l-0.5-1.5l-0.5-2.4l-0.2-1.9v-2l1.4,0.5l1.6,0.2
			h1.5l1.6,1l1.6,1.9l2.2-1.9l1.1-0.1l1.4-0.1l0.7-0.1l1.4,0.1l1.8,0.2l-0.3-5.1l4.4,4.4h7l7,2.9l-0.3,3.5l2.2,2.2l0.6,5.7l1.9-0.8
			l1.4-0.5l1.1-0.3l4.5-5.3l2.4-2.6l1.5-1.5l0.7-0.7L658.8,239z"/>
		<path class="st4" d="M539.8,234.6c0,0-5-8.1-7.1-5.5s0,5.5,0,5.5l-5.2-1.4l-3.8-1.6h-2.9l-3.4,1.6l-3.2,3.9l-4.1,1.5
			c0,0-2.2-3.6-4.4-1.5s-4.4,1.5-4.4,1.5l-5.4,1.8L493,244l1.9,3.5h1.6c0,0-8.6,2.2-7.6,4.4s2.8,2.5,2.8,2.5l-2.9,4.8
			c0,0,3.6-1,4.2,1.6s0,4.8,0,4.8l-9.2,4.4v3.3c0,0-5.7,0.2-5.7,3.6l3.2,5.1l-3.2,6.3v3.2v4.4l2.2,2.9l0.3,6.3l2.5,1.9l0.3,3.5
			l-2.5,1.3l2.5,1.8v3.1l-0.6,2.4l-4.8,3.3v2.1h3.2l-1.9,3.7l-2.9,2.2l-1.9,1.6h4.1l-1.3,3.2l-0.6,3.3h2.9c0,0-1.9,2.5-1.9,5.3
			s1.6,0,1.6,0h3.2c0,0-0.3-1.1-1,2.7s1,7,1,7l2.2,1.3l1.9,2.9l1.9,2.2h3.1v-2.5l2-5.5l0.8-5.3l0.4-2.2v-5.1l-0.3-4.1l-2.9-0.5
			l6.1-10l-1.3-2.8l-2.2,2.6l-0.9,0.2l-1-0.7l-0.8-2.8l0.6-2.1l1.2-1.7l2.2-2l4.9-4.9l-1.3-3.5v-2.5l4.4-3.8l-0.1-1.8l0-1.4l0.1-0.9
			l0.6-1l1.4-0.4l1.4-0.1l1.9,0.2l0.4-1l1.1-1.4l1.7-1.1l1.4-0.2l1.6,0.5l1.8,1.4l1.8,2.5l1.4,1.2l1.8,1.6h1.6l6.4,2.2l0.8-0.5
			l1.8-1.1l5.6-6.3l0.6-2.9l-0.4-1.6l-0.2-0.9l2.5-2.9l-1.6-5.1l2.4-0.4l1.4-0.2l1.8-2.2l-2.6-1.5l-1.4-0.8l-0.6-1.3l-0.2-1.6
			l0.7-5.6l0.7-3.8l-0.1-1.2l-0.6,0.3l-1.6-1.9l-1-1.9l-0.8-2.5l-0.2-3l1.2-1.9l1.2-0.8l1.2-0.4l-1.2-2.9l-0.3-0.7l-0.9-0.8
			l-1.3-1.1v-2.9l2.1-3.3L539.8,234.6z"/>
		<path class="st0" d="M695.6,493.3c0,1.3-2,3.1-6.3,3.3c-6.3,0.3-11.9-2.3-11.3-3.3c1.1-2.2,2.7-3.2,8-3.1
			C690.3,490.3,695.6,492,695.6,493.3z"/>
		<path class="st0" d="M664.8,460.8c0,1.3-2,3.1-6.3,3.3c-6.3,0.3-11.9-2.3-11.3-3.3c1.1-2.2,2.7-3.2,8-3.1
			C659.5,457.8,664.8,459.6,664.8,460.8z"/>
		<path class="st0" d="M667,512.4c0,1.3-2,3.1-6.3,3.3c-6.3,0.3-11.9-2.3-11.3-3.3c1.1-2.2,2.7-3.2,8-3.1
			C661.7,509.3,667,511.1,667,512.4z"/>
		<path class="st0" d="M616.2,507.5c-0.5,1.2-3,2.2-7.1,0.8c-6-2-10.2-6.5-9.3-7.2c1.8-1.6,3.7-2,8.6,0
			C612.4,502.7,616.6,506.3,616.2,507.5z"/>
		<path class="st0" d="M689.9,475.5c0,1.3-1.9,3.2-6.2,3.5c-6.3,0.5-11.9-1.9-11.4-2.9c1-2.2,2.6-3.3,7.9-3.4
			C684.5,472.7,689.8,474.2,689.9,475.5z"/>
		<path class="st0" d="M556.5,522.6c-1.3-0.3-2.6-2.6-1.9-6.9c1-6.2,4.7-11.1,5.6-10.4c1.9,1.5,2.6,3.3,1.4,8.5
			C560.5,518,557.7,522.8,556.5,522.6z"/>
		<path class="st0" d="M495.5,507.8c-0.5-1.2,0.6-3.6,4.6-5.5c5.7-2.7,11.8-2.4,11.7-1.3c-0.2,2.4-1.3,4-6.2,6
			C501.6,508.5,496,508.9,495.5,507.8z"/>
		<path class="st0" d="M521.8,480.3c-0.5-1.2,0.6-3.6,4.6-5.5c5.7-2.7,11.8-2.4,11.7-1.3c-0.2,2.4-1.3,4-6.2,6
			C527.9,481.1,522.3,481.5,521.8,480.3z"/>
		<path class="st0" d="M491.8,488.6c-0.5-1.2,0.6-3.6,4.6-5.5c5.7-2.7,11.8-2.4,11.7-1.3c-0.2,2.4-1.3,4-6.2,6
			C497.8,489.4,492.3,489.8,491.8,488.6z"/>
		<rect x="585.8" y="314.3" class="st2" width="0.5" height="2.4"/>
		
			<rect x="537.2" y="321.5" transform="matrix(0.7071 -0.7071 0.7071 0.7071 -72.6739 476.3513)" class="st0" width="2.9" height="8.8"/>
		<rect x="529.3" y="305.1" class="st0" width="2.8" height="5"/>
		<rect x="602" y="372.3" class="st3" width="5.5" height="7.4"/>
		
			<rect x="560.9" y="340.3" transform="matrix(0.7672 0.6414 -0.6414 0.7672 350.6136 -284.0003)" class="st4" width="11.2" height="1.4"/>
		<rect x="576.2" y="346.7" class="st8" width="7.3" height="2"/>
		<rect x="579" y="343" transform="matrix(0.4293 -0.9031 0.9031 0.4293 21.8696 722.5245)" class="st8" width="7.3" height="2"/>
		
			<rect x="577.7" y="333" transform="matrix(8.112650e-02 -0.9967 0.9967 8.112650e-02 203.7759 888.9916)" class="st8" width="12.7" height="2"/>
		
			<rect x="681.7" y="294.6" transform="matrix(0.9386 0.3451 -0.3451 0.9386 144.1823 -217.2517)" class="st2" width="1.2" height="3.6"/>
		
			<rect x="625.4" y="277.6" transform="matrix(0.988 0.1548 -0.1548 0.988 51.0049 -93.6069)" class="st9" width="2.6" height="6.5"/>
		
			<rect x="625.4" y="277.6" transform="matrix(0.9866 0.1635 -0.1635 0.9866 54.2555 -98.6619)" class="st9" width="2.6" height="5.6"/>
		
			<rect x="627.2" y="282.1" transform="matrix(0.9866 0.1635 -0.1635 0.9866 55.0179 -98.8971)" class="st9" width="2.6" height="5.6"/>
		
			<rect x="614.1" y="281.6" transform="matrix(0.9866 0.1635 -0.1635 0.9866 54.7638 -96.7642)" class="st9" width="2.6" height="5.6"/>
		<rect x="613.3" y="281.4" class="st9" width="2.6" height="5.6"/>
		<rect x="610.7" y="283.9" class="st9" width="2.6" height="5.6"/>
		<rect x="607.9" y="283.9" class="st9" width="2.6" height="5.6"/>
		<rect x="606.1" y="283.9" class="st9" width="2.6" height="5.6"/>
		
			<rect x="600.5" y="285.7" transform="matrix(0.846 0.5331 -0.5331 0.846 246.5276 -276.6445)" class="st9" width="3.4" height="5.6"/>
		<rect x="585.2" y="312.6" class="st3" width="2.6" height="5.2"/>
		
			<rect x="583.8" y="307.1" transform="matrix(0.8421 -0.5394 0.5394 0.8421 -74.7843 364.5444)" class="st3" width="2.6" height="5.7"/>
		
			<rect x="575.8" y="297.4" transform="matrix(0.3402 -0.9404 0.9404 0.3402 93.7314 743.1603)" class="st3" width="1.3" height="14.7"/>
		
			<rect x="566.8" y="299.8" transform="matrix(0.255 -0.9669 0.9669 0.255 130.42 773.5115)" class="st3" width="0.8" height="4.6"/>
		
			<rect x="632.4" y="304.4" transform="matrix(0.8265 -0.5629 0.5629 0.8265 -61.2706 412.0126)" class="st3" width="10.9" height="2.1"/>
		
			<rect x="619.5" y="315.1" transform="matrix(0.6103 -0.7922 0.7922 0.6103 -6.8677 618.275)" class="st3" width="10.9" height="2.1"/>
		
			<rect x="613.4" y="323.8" transform="matrix(0.4022 -0.9156 0.9156 0.4022 72.5256 760.8012)" class="st3" width="10.9" height="2.1"/>
		
			<rect x="610.4" y="332.8" transform="matrix(0.1986 -0.9801 0.9801 0.1986 166.3509 871.121)" class="st3" width="10.9" height="2.1"/>
		
			<rect x="596" y="313.8" transform="matrix(0.5331 -0.846 0.846 0.5331 16.8342 660.6978)" class="st3" width="22.2" height="2.6"/>
		
			<rect x="637.5" y="325.4" transform="matrix(0.9594 -0.2819 0.2819 0.9594 -65.8608 194.8957)" class="st3" width="13.8" height="1.8"/>
		
			<rect x="627.1" y="330.3" transform="matrix(0.846 -0.5331 0.5331 0.846 -78.9317 389.0105)" class="st3" width="13.8" height="1.8"/>
		
			<rect x="616.5" y="340.6" transform="matrix(0.5323 -0.8465 0.8465 0.5323 2.8678 688.2255)" class="st3" width="15.7" height="1.8"/>
		
			<rect x="613.1" y="357.9" transform="matrix(0.9193 0.3936 -0.3936 0.9193 192.8448 -212.4727)" class="st3" width="2.6" height="12"/>
		
			<rect x="609.5" y="369.4" transform="matrix(0.9998 2.112496e-02 -2.112496e-02 0.9998 8.0658 -12.8188)" class="st3" width="2.6" height="12"/>
		
			<rect x="614.2" y="370.3" transform="matrix(0.9193 0.3936 -0.3936 0.9193 197.782 -211.6655)" class="st2" width="1.5" height="12.1"/>
		
			<rect x="613.1" y="369.5" transform="matrix(0.9801 0.1986 -0.1986 0.9801 86.7902 -114.4129)" class="st2" width="1.5" height="12.1"/>
		
			<rect x="612.1" y="379.8" transform="matrix(0.9801 0.1986 -0.1986 0.9801 87.7886 -114.078)" class="st2" width="1.2" height="1.7"/>
		
			<rect x="598" y="298.8" transform="matrix(0.9751 0.2218 -0.2218 0.9751 82.8851 -125.1807)" class="st3" width="1.6" height="15.3"/>
		
			<rect x="601.5" y="290.8" transform="matrix(0.9129 0.4081 -0.4081 0.9129 172.9232 -219.8314)" class="st3" width="0.4" height="9.1"/>
		
			<rect x="601.2" y="292.8" transform="matrix(0.9514 0.308 -0.308 0.9514 120.8118 -170.7763)" class="st3" width="0.4" height="9.1"/>
		<rect x="568.8" y="299.5" class="st3" width="13.7" height="3"/>
		
			<rect x="577.6" y="296.7" transform="matrix(6.123234e-17 -1 1 6.123234e-17 281.6624 878.1368)" class="st3" width="4.5" height="3"/>
		
			<rect x="565" y="299.2" transform="matrix(-0.8421 0.5394 -0.5394 -0.8421 1207.1968 247.935)" class="st3" width="4.5" height="3"/>
		
			<rect x="568.2" y="297.2" transform="matrix(-0.8421 0.5394 -0.5394 -0.8421 1211.9351 242.4915)" class="st3" width="4.5" height="3"/>
		
			<rect x="575.8" y="297" transform="matrix(-0.8421 0.5394 -0.5394 -0.8421 1225.8647 238.0725)" class="st3" width="4.5" height="3"/>
		
			<rect x="568.8" y="296.6" transform="matrix(-0.8421 0.5394 -0.5394 -0.8421 1212.7926 241.0874)" class="st3" width="4.5" height="3"/>
		
			<rect x="571.5" y="295.7" transform="matrix(-1 -1.224647e-16 1.224647e-16 -1 1147.4381 592.8508)" class="st3" width="4.5" height="1.5"/>
		
			<rect x="574.4" y="296.4" transform="matrix(-0.9404 -0.3402 0.3402 -0.9404 1017.8342 772.7878)" class="st3" width="4.5" height="1.5"/>
		<rect x="528.8" y="304.7" class="st3" width="3.8" height="6"/>
		<rect x="529" y="312.4" class="st3" width="4.4" height="5.7"/>
		
			<rect x="527" y="316.8" transform="matrix(0.7071 0.7071 -0.7071 0.7071 382.5289 -287.7874)" class="st3" width="23.3" height="2.1"/>
		
			<rect x="542.4" y="319.1" transform="matrix(3.736525e-02 0.9993 -0.9993 3.736525e-02 848.1096 -240.0688)" class="st3" width="12.5" height="2.1"/>
		
			<rect x="546.5" y="324.7" transform="matrix(3.736525e-02 0.9993 -0.9993 3.736525e-02 852.4352 -233.4586)" class="st3" width="1.9" height="2.1"/>
	</g>
</g>
</svg>
