<?xml version="1.0" encoding="utf-8"?>
<!-- Generator: Adobe Illustrator 22.1.0, SVG Export Plug-In . SVG Version: 6.00 Build 0)  -->
<svg version="1.1" xmlns="http://www.w3.org/2000/svg" xmlns:xlink="http://www.w3.org/1999/xlink" x="0px" y="0px"
	 viewBox="0 0 1200 1100" style="enable-background:new 0 0 1200 1100;" xml:space="preserve">
<style type="text/css">
	.st0{fill:#FFFFFF;stroke:#FFFFFF;stroke-miterlimit:10;}
	.st1{fill:#FF9900;stroke:#FFFFFF;stroke-width:3;stroke-miterlimit:10;}
	.st2{fill:#FFFFFF;}
	.st3{fill:#FF9900;}
	.st4{fill:#FFFFFF;stroke:#FF9900;stroke-width:3;stroke-miterlimit:10;}
	.st5{fill:#FFFFFF;stroke:#FF9900;stroke-width:7;stroke-miterlimit:10;}
	.st6{fill:#FF9900;stroke:#FFFFFF;stroke-width:7;stroke-miterlimit:10;}
	.st7{fill:#FF9900;stroke:#FFFFFF;stroke-miterlimit:10;}
	.st8{fill:#FF9900;stroke:#FF9900;stroke-width:3;stroke-miterlimit:10;}
	.st9{fill:#FFFFFF;stroke:#FFFFFF;stroke-width:3;stroke-miterlimit:10;}
	.st10{fill:#FF9900;stroke:#FF9900;stroke-miterlimit:10;}
</style>
<g id="achtergrond">
	<rect x="626.1" y="511.7" class="st0" width="16" height="16"/>
</g>
<g id="Layer_1">
	<path class="st1" d="M648.6,511.2c0,0-3,122,0,134s5,45,12,51s10,10,13,19s6,14,12,14s5,4,16,7s12,1,19,12s5,16,14,19s22,12,0,7
		s-31-9-48-13s-14-6-30-8s-43-8-43-8s9-4-9-1s-26,3-38,8s-14,7-23,7s-11-2-20,1s-12,5-21,6s-17,3-22,3s-21,2-21,2s50-18,52-23
		c2-5,28-23,36-41s11-50,11-50s8-55,6-66s3-83-2-87s-1-13-7-19s-28-25-43-41l-9,6l-18,2l-17,1l-17,2v-7l23-4l33-10l-2-4.9l-8-10.1
		l-9-11l-8-7h-12l-5-11h17v-13l16,17l12,14h6l-2-25l7-1l7-5v31l17,21.1c0,0,8,13.9,20,15.9s14,14,19,4s4-59,9-59s-6-18-6-18
		s-36-16-41-12s5-4,5-4h19h10v-11h5l5-6h6l10,31c0,0,21-27,21-41h7c0,0-16,47-15,54s2,15,6,18s12.5-18,12.5-18l20.5-35l3-26l8-5h7
		l-6,40l20-20l6,8l-15,27l28-19l5,7c0,0-47,29-52,55l-4,14.1l-1,6.9l37-28l31-15l7,1l-2,14c0,0-35,9.3-45,21.1
		c-10,11.9-17,26.9-17,26.9l-9,25l-5,15L648.6,511.2z"/>
	<polygon class="st2" points="562.6,504.2 543.6,515.2 535.6,509.7 530.6,515.2 519.6,515.2 507.6,525.2 500.6,525.2 516.6,504.2 
		500.6,499.2 500.6,487.2 493.6,487.2 493.6,478.2 480.6,487.2 476.6,478.2 468.6,484.2 461.6,478.2 470.6,470.2 461.6,470.2 
		468.6,453.2 503.6,450.2 512.6,444.2 555.6,485.2 	"/>
	<polygon class="st2" points="451.6,455.2 441.6,449.2 461.6,435 469.6,429.3 461.6,420.2 446.6,414.2 468.6,401.2 480.6,401.2 
		505.6,429.3 507.6,434.2 	"/>
	<polygon class="st2" points="469.6,390.2 469.6,378.5 474.6,378.5 480.6,377.2 480.6,390.2 	"/>
	<polygon class="st3" points="514.6,408.2 512.6,383.2 512.1,377.2 507.6,377.2 503,380.5 496.3,377.2 493,377.2 487.6,377.2 
		485,372.5 480.6,369.9 480.6,377.2 496.6,394.2 508.6,408.2 	"/>
	<path class="st4" d="M492.3,340.5l-11.7,13.3l-5.5,3.3v6.7l-5.5,6l5,8.7l6-1.3v-7.3l7,7.3l15.3,3.3l9.2-3.3l0.5,6l7-1l7-5v-10h7
		l8-5.3l8-5.7l13-9l6.3-0.7l6.7,2.7l3-4h5l5-6h6l10-4h4.3l6.7,2.7l7.2,2.4l2.8-11.1h7h8.3h6v-4.7h8l4.7-2.3l8-5h7l6.3,3.3v8.7l7.7,8
		l6,8l6.3,2l6.7,6l5,7l9.7,6.3l5.3-0.7l6-3.3l4,2l5.3-1.3v-4l3.8-2.7h6.2l-4-6.3l-5.3-7.7l9.3,7.7h4.7h4c0,0,2.7-0.3,5.3,0
		c2.7,0.3,2.7,0.3,2.7,0.3l13.3-8.7v-4c0,0,10-1.3,4.7-10c-5.3-8.7-10-8-10-8l-4-6.7c0,0-2.7-7.3,6.7-14l-10-8.7c0,0,6.7-6.7,4-10.7
		s-18-6.7-18-6.7s5.3-8.7-1.3-14c-6.7-5.3-8.2,0-8.2,0l-10.4-2.4h-8.7l-4,3c0,0,3.3-10-0.7-9.3s-9.3,3.3-9.3,3.3l-1.3-12l-4.7-4.7
		l0.7-7.3l-14.7-6H679l-9.3-9.3l0.7,10.7l-6.7-0.7l-6.7,0.7l-4.7,4l-3.3-4l-3.3-2h-5.3l-4.2-1.3c0,0-0.5,11.3,3.5,18.7
		s2.3,16.7-3.5,18.7c-5.8,2-21.8,3.3-19.8,12c2,8.7,0.7,15.3,0.7,15.3l-6.7,3.3c0,0-5.6-8.7-11.1-7.3c-5.5,1.3-8.2,3.3-8.2,3.3
		s-0.7-6.7-6-4.7c-5.3,2-7.3,4.7-7.3,4.7l-4.7-3.3l-10.3-1.3l-9.7-2.7l-4.7,2l-6.7,2.7l-6.7-0.7l-2,5.3l-1.3,6.7l-7.3-2l-3.3,1.3
		l-3.3,1.3l-5.5,3.7l-4.5,5.7l-5.3,6.7l-8,1.3l3.3,10.7l-5.3,6l1.3,5.3L492.3,340.5z"/>
	<path class="st5" d="M469.6,369.9l5.5-6v-6.7l-13.5-4.7h-3.3l-6.7-6c0,0-6-11.3-14-8.7c0,0-6,2.7-6.7,7.3c0,0-10.7-2-11.3,2.7
		s0,8.7,0,8.7l-9.3,8v5.3l2.7,7.3L401,389c0,0-9.3,6.2-6,14.8c3.3,8.7,9.3-2.7,9.3-2.7l2.7,5.9l-6,10.1l-6.7,11c0,0,6.1-1.4,6.1,1.1
		c0,2.5,0.7,8.5,0.7,8.5v10.7c0,0-2,11.3-2,13.3s-4.7,14-4.7,14v14.7l6.1,11.3l6.7,3.3h7.3l12,5.3h8.4c0,0-2.3,8.7,0,10.7
		s0,13.3,0,13.3v15.3c0,0-0.4,11.3,10.9,6s16-4,16-4l8-1.3l5.5-4.1l10.5-12.6l9.3-5.3l5.7-3.3l16-21l-16-5v-12h-7v-9l-13,9l-4-9
		l-8,6l-7-6l9-8h-9l7-17l-17,2l-10-6l28-19.9l-8-9.1l-15-6l22-13l-5-11h6v-11.7h5L469.6,369.9z"/>
	<path class="st4" d="M723.6,393.2l3.3-16h12.7h7.1l8.9-7.3h5.3h8l2.7-8c0,0,0-4,8-4s8,0,8,0l4.7-10.7c0,0-0.7-13.5,3.3-9.7
		c4,3.7,9.3,9.7,9.3,9.7v4v8c0,0,2.7-2.7,6,1.3c3.3,4,0,9.3,0,9.3l4.7,7.3h12l3.3,6l-5.3,7l-1.3,7.7l6.7,3.3l4.7,7v5.7v6l9.3,15.3
		l-11.3-5.9l-0.7,5.9l-0.7,12.2l-3.3,7.8v6.7l-2,6.7l-5.3,6.7l-6-3.3v3.3l-4,4l-7.3,9.3h-8h-7.1v8l-4.9,8c0,0,5.3,6-3.3,8.7
		c-8.7,2.7-10-6-10-6s-6-3.3-14,2.7s-10.2-5.3-10.2-5.3l-5.8-0.7c0,0-12-6-10-14s-6,12-16,11.3c-10-0.7-6-22.7-6-22.7l-7.3-4v-14
		v-5.3l-3.3-7.8v-8.2l4.7-4.7l1.3-6.3l-6-7l5.7-4.5l24.6-8.5l2-14L723.6,393.2z"/>
	<polygon class="st6" points="594.6,339.2 604.6,370.2 616.7,352.5 622.9,340.3 615.6,337.9 609,335.2 604.6,335.2 	"/>
	<polygon class="st4" points="632.6,330.2 647,330.2 647,325.5 655,325.5 659.6,323.2 656.6,349.2 623.6,402.2 619.9,396.1 
		618.5,390 617.6,384.2 622.9,360.8 	"/>
	<polygon class="st0" points="694.6,345.2 679.6,372.2 707.6,353.2 701,347.2 	"/>
	<polygon class="st0" points="674.6,317.2 668.6,357.2 688.6,337.2 679.6,325.9 681,320.5 	"/>
	<polygon class="st4" points="783,337.9 792.3,347.2 787.6,357.9 779.6,357.9 774.5,358.7 771.6,361.9 769,369.9 761,369.9 
		755.6,369.9 746.7,377.2 727,377.2 723.6,393.2 705,402.2 692.6,408.2 688.6,411.2 683.4,415.2 673.6,422.6 655.6,436.2 
		660.6,415.2 666.8,401.2 675.6,390.2 688.6,377.2 712.6,360.2 	"/>
	<polygon class="st4" points="526.6,377.2 526.6,367.2 533.6,367.2 544.6,360.2 552.3,360.2 561.2,362.7 567.1,364.7 577.4,368.7 
		585.6,372.2 591.6,383.7 591.6,390.2 588.3,402.2 587.4,412.6 585.4,436.2 582.6,449.2 578.4,453.1 573.5,449.9 559.1,443.9 
		546.3,433.2 526.6,408.2 	"/>
	<polygon class="st7" points="562.6,347.2 569,346.5 575.6,349.2 578.6,356.2 549.6,356.2 	"/>
	<path class="st4" d="M698.3,421.2l-4.7,0.5l-10,7.6l-12.3,18l-4.7,8.8l-7.9,22l-4.2,12.4l-3.4,11.5l-2.4,9v14l14,8l6,5l10,5.5
		l7.5,5c0,0,8.3,6.5,12.2,2s9.3-4.3,9.3-4.3s0.5-2.2,6-3.7s5.5-2.5,8-5.5s3-8,6.5-6.5s10,7.5,16.5,5s11,2.5,18-1.5s21-9,21-9
		s12-3,16-6s13-7,13-11c0-4,0-11.5,0-11.5l9-0.5l4-3l6-0.5l5.5,0.5l3.5,3l6.5-5.5l-11.5-6l9.3-5v-5.5v-3l15.7-1v-5.5l2.5-6.5l3.5-3
		l-9.5-2.1c0,0,10.5-4.4,9.5-8.9s-4-8-4-8s4-11.5,0.5-15s-7-5-7-5s7-1,4.5-8s-12-18-12-18l-9-6.5l-8.7-0.5l-5.3,7l-1.3,7.7l6.7,3.3
		l4.7,7v5.7v6l6.8,11.2l2.5,4.1l-11.3-5.9l-0.7,5.9l-0.5,9l-0.2,3.2l-3.3,7.8v6.7l-2,6.7l-5.3,6.7l-6-3.3v3.3l-4,4l-7.3,9.3h-8h-7.1
		v8l-4.9,8l0.9,6.1l-4.3,2.6l-3.3,0.5l-3.4-1.1l-3.2-5.4l-3.9-0.9l-6.1,1.2l-4,2.4l-3.1,1.6l-4.5-1.4l-2.6-5.5l-5.8-0.7l-4.8-3.2
		l-2.9-2.9l-2.2-7.9l-7,6.9l-4.8,3.5l-4.2,0.9l-3.7-1.7l-3.7-8.8l1.3-12.2l-7.3-4v-19.3l-3.3-7.8v-8.2l4.7-4.7l1.3-6.3L698.3,421.2z
		"/>
	<path class="st4" d="M860.6,408.2l6.1,3l6.9-3h6.7l5.3-6l-6-3.7l-9.3,2.7l6-11h-6.7l-6-1.2l3.1-5.3l6.4-0.5v-3.3v-7.7
		c0,0,8.5,1,3.2-5.7h-9.6c0,0,10.6-8,6.4-21.3c-4.2-13.3-12.5-18.7-12.5-18.7s3-10.7-3-15.3c0,0-9.3-4-18.7,0v-16.7h6v-7.3v-8.7h-6
		v-6l-3.3-4h-6l4.7-10.7v-8h-8.7v-4.7H817l-3.3-4.7v-6h-7.3h-4l-18.7-7.3l-20-4c0,0-12-2.7-21.3,6c-9.3,8.7-19.3,21.3-19.3,21.3
		l1.7,0.9l0,4.2l-1.1,4.2l4-3h8.7l10.4,2.4l1.6-2l2.9-0.1l3.7,2.1l2.1,2.3l1.2,3.7l-0.2,3.2l-1.8,4.8l7,1.6l5.3,1.6l3.1,1.4l2.7,2.1
		l0.6,2.6l-0.9,3l-1.6,2.6l-2.1,2.5l10,8.7l-4.2,3.9l-2.1,3.8l-0.7,4.3l0.3,2l4,6.7l2.6,0.6l3.8,2.8l2.3,2.8l1.2,1.9l1.5,4l-0.9,3.3
		l-2,1.6l-3.3,1.1l9.3,9.3l0.2-6.2l0.7-3.1l0.8-1.1h0.9l0.8,0.7l9.3,9.7v12l2.3-0.9l1.5,0.4l2.2,1.8l1,1.6l0.5,2.1l-0.2,2.3
		l-1.3,3.4l4.7,7.3h12l3.3,6l8.7,0.5l9,6.5l4.5,5.7l2.9,4l2.5,4L860.6,408.2z"/>
	<path class="st4" d="M745.6,226.7v-15l-1.9-2.8l-2.5-1.8v-10l-1.3-1.8l-1.5-1.5h-2h-4.5h-1.8l-1.3-4.3l2.3-2.5v-2.8l-2.3-1.8h-2
		H724l-2.1,1.5l-2.5-4h-2.3h-3.8l-2.8,2.5l-2.5,2.3v2h-2l-2.5-1.3l-1.8-1.5l-2.5-0.3c0,0-2.5,0.8-3.5,2s0,5,0,5l-3.8-4l-3.5-2.8
		c0,0-2-2.8-4.3-1s-3,4.3-3,4.3v5.8v4.3c0,0-6.5-10-9.5-7.3s-3.3,6.5-3.3,6.5v3.3l-1.5,2.3l-11.5-18.8c0,0,2-8.8-1.3-8.5
		s-6.3,1-6.3,1l-1.8,1.3l-3.3-0.5v-5.5l3-4.3c0,0-3.8-3.5-3-3.8s-4.5,0-4.5,0l-2.5,3l-2.5,1.5c0,0-0.3-12.2-6-11.2
		c-5.7,1-4.7,3.3-4.7,3.3l-2.7-3.4l-5-6.3l-1.7-2c0,0-4.3-3-4.3,3s-3.3,2.7-3.3,2.7l-4-6.4h-2.8l-3.5-1.9h-5.3l-2,3.3l-9.7-3.3v8.7
		h-14.5l-14.5,6c0,0-49,23-52,43s-3,20-3,20l-4.5,7v6l4.5,4l3,7.5c0,0-9,1-7.5,11s7.5,15,7.5,15s3.5-5,0,10s0,18,0,18l8.4,4.8
		l6.1-7.7l5.5-3.7l3.3-1.3l3.3-1.3l7.3,2l0.5-2.5l0.5-2.3l0.4-1.9l0.8-2.3l1.2-3.1l2.3,0.2l4.4,0.4l11.3-4.7l4.9,1.3l2.5,0.7
		l3.8,0.8l2.9,0.4l3.2,0.4l2.7,0.4l4.7,3.3l1-1l2-1.5l2.2-1.2l2.1-0.9l2-0.4l1.6,0.5l1.4,1.4l0.9,2.1l0.2,1l3-1.6l2-0.8l3.2-0.9
		l1.6-0.1l1.3,0.3l1.2,0.5l1.3,0.8l1.6,1.2l1.7,1.6l2.4,3.1l4.7-2.3l2-1l0.4-4.5l-0.1-3.7l-0.3-2.8l-0.6-3.4l-0.2-1l-0.1-2.4
		l0.9-2.1l1.8-1.8l2.1-1.2l3.6-1.4l3.9-1.1l4.5-1.1l3.1-0.9l2.5-1.5l1.8-2.5l1.2-4.3l-0.1-4.5l-1-3.8l-2.1-4.4l-1-3.1l-1-5l-0.4-4
		v-4.2l3,0.9l3.4,0.4h3.2l3.3,2l3.3,4l4.7-4l2.2-0.2l3-0.3l1.5-0.1l2.8,0.3l3.8,0.4l-0.7-10.7l9.3,9.3h14.7l14.7,6l-0.7,7.3l4.7,4.7
		l1.3,12l4-1.8l2.9-1l2.4-0.6l9.4-11.1l5.1-5.5l3.2-3.2l1.5-1.5L745.6,226.7z"/>
	<path class="st4" d="M495.5,217.5c0,0-10.5-16.9-14.9-11.6c-4.3,5.3,0,11.6,0,11.6l-11-2.9l-8-3.4h-6.2l-7.1,3.4l-6.7,8.3L433,226
		c0,0-4.7-7.6-9.3-3.2c-4.7,4.4-9.3,3.2-9.3,3.2l-11.3,3.8l-6,7.3l4,7.3h3.3c0,0-18,4.7-16,9.3s5.9,5.3,5.9,5.3l-6.1,10
		c0,0,7.5-2,8.8,3.3c1.3,5.3,0,10,0,10l-19.3,9.3v7c0,0-12,0.3-12,7.7l6.7,10.7l-6.7,13.3v6.7v9.3l4.7,6.2l0.7,13.2l5.3,4l0.7,7.3
		l-5.3,2.7l5.3,3.8v6.5l-1.3,5l-10,7v4.5h6.7l-4,7.9l-6,4.7l-4,3.3h8.7l-2.7,6.8l-1.3,6.9h6c0,0-4,5.4-4,11.2c0,5.8,3.3,0,3.3,0h6.7
		c0,0-0.7-2.4-2,5.7c-1.3,8.1,2,14.6,2,14.6l4.7,2.8l4,6l4,4.7h6.6v-5.3l4.2-11.6l1.8-11.2l0.8-4.6v-10.7l-0.7-8.5l-6.1-1.1
		l12.7-21.1l-2.7-5.9l-4.6,5.5l-1.8,0.5l-2-1.5l-1.6-5.9l1.2-4.5l2.5-3.5l4.7-4.3l10.4-10.2l-2.7-7.3v-5.3l9.3-8l-0.3-3.8l0.1-3
		l0.2-1.9l1.3-2l2.9-0.9l3-0.1l4.1,0.4l0.7-2.2l2.4-2.9l3.5-2.3l3-0.4l3.4,1l3.8,2.9l3.9,5.2l2.8,2.6l3.8,3.4h3.3l13.5,4.7l1.6-1
		l3.9-2.3l11.7-13.3l1.3-6l-0.9-3.4l-0.5-1.9l5.3-6l-3.3-10.7l5.1-0.9l2.9-0.5l3.7-4.7l-5.5-3.1l-2.9-1.7l-1.2-2.8l-0.3-3.4
		l1.6-11.7l1.5-8l-0.1-2.6l-1.4,0.6l-3.3-4l-2.2-4l-1.7-5.2l-0.5-6.3l2.6-4.1l2.5-1.6l2.6-0.8l-2.4-6.1l-0.6-1.4l-1.9-1.7l-2.6-2.3
		v-6l4.5-7L495.5,217.5z"/>
	<path class="st0" d="M822.9,761.3c0,2.7-4.1,6.5-13.3,7c-13.2,0.6-24.9-4.8-23.8-7c2.4-4.5,5.7-6.8,16.8-6.6
		C811.8,754.9,822.9,758.6,822.9,761.3z"/>
	<path class="st0" d="M758.2,693.1c0,2.7-4.1,6.5-13.3,7c-13.2,0.6-24.9-4.8-23.8-7c2.4-4.5,5.7-6.8,16.8-6.6
		C747.1,686.7,758.2,690.4,758.2,693.1z"/>
	<path class="st0" d="M762.8,801.4c0,2.7-4.1,6.5-13.3,7c-13.2,0.6-24.9-4.8-23.8-7c2.4-4.5,5.7-6.8,16.8-6.6
		C751.7,795,762.8,798.7,762.8,801.4z"/>
	<path class="st0" d="M656,791.1c-1,2.5-6.2,4.6-14.9,1.6c-12.5-4.3-21.4-13.6-19.6-15.2c3.9-3.4,7.8-4.2,18.1,0
		C648,781,657,788.6,656,791.1z"/>
	<path class="st0" d="M810.9,723.9c0.1,2.7-3.9,6.7-13,7.4c-13.2,1.1-25.1-3.9-24.1-6.1c2.2-4.6,5.4-7,16.6-7.2
		C799.5,717.9,810.8,721.2,810.9,723.9z"/>
	<path class="st0" d="M530.5,822.8c-2.6-0.6-5.5-5.4-4.1-14.4c2.1-13.1,9.9-23.4,11.8-21.8c3.9,3.3,5.5,7,2.9,17.8
		C539,813.3,533.1,823.4,530.5,822.8z"/>
	<path class="st0" d="M402.4,791.7c-1-2.5,1.3-7.6,9.6-11.5c12-5.7,24.9-5.1,24.7-2.7c-0.4,5.1-2.6,8.4-13,12.5
		C415.1,793.3,403.4,794.2,402.4,791.7z"/>
	<path class="st0" d="M457.6,734c-1-2.5,1.3-7.6,9.6-11.5c12-5.7,24.9-5.1,24.7-2.7c-0.4,5.1-2.6,8.4-13,12.5
		C470.4,735.6,458.7,736.5,457.6,734z"/>
	<path class="st0" d="M394.5,751.4c-1-2.5,1.3-7.6,9.6-11.5c12-5.7,24.9-5.1,24.7-2.7c-0.4,5.1-2.6,8.4-13,12.5
		C407.2,753.1,395.5,753.9,394.5,751.4z"/>
	<rect x="592.2" y="385.1" class="st2" width="1.1" height="5"/>
	
		<rect x="490" y="400.2" transform="matrix(0.7071 -0.7071 0.7071 0.7071 -145.0923 468.569)" class="st0" width="6.2" height="18.5"/>
	<rect x="473.4" y="365.8" class="st0" width="5.9" height="10.4"/>
	<rect x="626.1" y="506.9" class="st3" width="11.5" height="15.5"/>
	
		<rect x="539.8" y="439.7" transform="matrix(0.7672 0.6414 -0.6414 0.7672 411.3953 -251.1322)" class="st4" width="23.6" height="2.9"/>
	<rect x="571.9" y="453.1" class="st8" width="15.4" height="4.1"/>
	
		<rect x="577.9" y="445.3" transform="matrix(0.4293 -0.9031 0.9031 0.4293 -69.8802 784.1633)" class="st8" width="15.4" height="4.1"/>
	
		<rect x="575.1" y="424.3" transform="matrix(8.112650e-02 -0.9967 0.9967 8.112650e-02 115.6855 978.293)" class="st8" width="26.6" height="4.1"/>
	
		<rect x="675.4" y="307.8" transform="matrix(0.988 0.1548 -0.1548 0.988 56.8585 -101.1603)" class="st9" width="5.5" height="13.6"/>
	
		<rect x="675.3" y="307.8" transform="matrix(0.9866 0.1635 -0.1635 0.9866 60.3969 -106.6106)" class="st9" width="5.5" height="11.8"/>
	
		<rect x="679.1" y="317.3" transform="matrix(0.9866 0.1635 -0.1635 0.9866 61.9996 -107.105)" class="st9" width="5.5" height="11.8"/>
	
		<rect x="651.6" y="316.3" transform="matrix(0.9866 0.1635 -0.1635 0.9866 61.4654 -102.6216)" class="st9" width="5.5" height="11.8"/>
	<rect x="650" y="315.8" class="st9" width="5.5" height="11.8"/>
	<rect x="644.5" y="321.2" class="st9" width="5.5" height="11.8"/>
	<rect x="638.6" y="321.2" class="st9" width="5.5" height="11.8"/>
	<rect x="634.8" y="321.2" class="st9" width="5.5" height="11.8"/>
	
		<rect x="623.1" y="324.9" transform="matrix(0.846 0.5331 -0.5331 0.846 272.84 -283.1546)" class="st9" width="7.1" height="11.8"/>
	<rect x="590.9" y="381.5" class="st3" width="5.4" height="10.9"/>
	
		<rect x="588" y="369.9" transform="matrix(0.8421 -0.5394 0.5394 0.8421 -109.4901 377.964)" class="st10" width="5.4" height="12.1"/>
	
		<rect x="571.1" y="349.6" transform="matrix(0.3402 -0.9404 0.9404 0.3402 34.4302 779.167)" class="st3" width="2.7" height="30.9"/>
	
		<rect x="552.1" y="354.6" transform="matrix(0.255 -0.9669 0.9669 0.255 64.4345 802.5034)" class="st3" width="1.8" height="9.6"/>
	
		<rect x="690" y="364.2" transform="matrix(0.8265 -0.5629 0.5629 0.8265 -84.5339 458.4236)" class="st3" width="22.9" height="4.4"/>
	
		<rect x="662.9" y="386.7" transform="matrix(0.6103 -0.7922 0.7922 0.6103 -45.2187 685.8094)" class="st3" width="22.9" height="4.4"/>
	
		<rect x="650.1" y="405.1" transform="matrix(0.4022 -0.9156 0.9156 0.4022 22.6603 849.1975)" class="st3" width="22.9" height="4.4"/>
	
		<rect x="643.8" y="423.9" transform="matrix(0.1986 -0.9801 0.9801 0.1986 107.5116 983.7214)" class="st3" width="22.9" height="4.4"/>
	
		<rect x="613.5" y="384" transform="matrix(0.5331 -0.846 0.846 0.5331 -29.8625 719.3137)" class="st3" width="46.7" height="5.5"/>
	
		<rect x="700.8" y="408.5" transform="matrix(0.9594 -0.2819 0.2819 0.9594 -86.6656 218.2837)" class="st3" width="28.9" height="3.7"/>
	
		<rect x="679" y="418.6" transform="matrix(0.846 -0.5331 0.5331 0.846 -117.3942 434.4703)" class="st3" width="28.9" height="3.7"/>
	
		<rect x="656.6" y="440.4" transform="matrix(0.5323 -0.8465 0.8465 0.5323 -59.5879 776.6412)" class="st3" width="33.1" height="3.7"/>
	
		<rect x="649.5" y="476.7" transform="matrix(0.9193 0.3936 -0.3936 0.9193 245.2693 -217.2583)" class="st3" width="5.6" height="25.2"/>
	
		<rect x="641.9" y="500.8" transform="matrix(0.9998 2.112496e-02 -2.112496e-02 0.9998 10.9893 -13.5033)" class="st3" width="5.6" height="25.2"/>
	
		<rect x="651.8" y="502.7" transform="matrix(0.9193 0.3936 -0.3936 0.9193 255.6473 -215.5616)" class="st2" width="3.1" height="25.5"/>
	
		<rect x="649.5" y="501" transform="matrix(0.9801 0.1986 -0.1986 0.9801 114.9741 -119.0538)" class="st2" width="3.1" height="25.5"/>
	
		<rect x="647.3" y="522.7" transform="matrix(0.9801 0.1986 -0.1986 0.9801 117.0726 -118.3498)" class="st2" width="2.6" height="3.7"/>
	
		<rect x="617.7" y="352.4" transform="matrix(0.9751 0.2218 -0.2218 0.9751 97.1656 -128.2088)" class="st3" width="3.3" height="32.2"/>
	
		<rect x="625.2" y="335.7" transform="matrix(0.9129 0.4081 -0.4081 0.9129 195.3623 -225.2255)" class="st3" width="0.8" height="19.2"/>
	
		<rect x="624.5" y="339.8" transform="matrix(0.9514 0.308 -0.308 0.9514 137.9846 -175.4949)" class="st3" width="0.8" height="19.2"/>
	<rect x="556.4" y="353.9" class="st3" width="28.8" height="6.3"/>
	
		<rect x="575" y="348.1" transform="matrix(6.123234e-17 -1 1 6.123234e-17 228.4541 931.0092)" class="st3" width="9.5" height="6.3"/>
	
		<rect x="548.5" y="353.3" transform="matrix(-0.8421 0.5394 -0.5394 -0.8421 1211.3866 358.2337)" class="st3" width="9.5" height="6.3"/>
	
		<rect x="555.2" y="349.1" transform="matrix(-0.8421 0.5394 -0.5394 -0.8421 1221.3464 346.7916)" class="st3" width="9.5" height="6.3"/>
	
		<rect x="571.2" y="348.7" transform="matrix(-0.8421 0.5394 -0.5394 -0.8421 1250.6266 337.5027)" class="st3" width="9.5" height="6.3"/>
	
		<rect x="556.5" y="347.8" transform="matrix(-0.8421 0.5394 -0.5394 -0.8421 1223.1489 343.8402)" class="st3" width="9.5" height="6.3"/>
	
		<rect x="562" y="345.9" transform="matrix(-1 -1.224647e-16 1.224647e-16 -1 1133.4802 694.9382)" class="st3" width="9.5" height="3.1"/>
	
		<rect x="568.2" y="347.5" transform="matrix(-0.9404 -0.3402 0.3402 -0.9404 992.9313 872.1586)" class="st3" width="9.5" height="3.1"/>
	<rect x="472.3" y="364.9" class="st3" width="8" height="12.7"/>
	<rect x="472.8" y="381" class="st3" width="9.3" height="12"/>
	
		<rect x="468.5" y="390.4" transform="matrix(0.7071 0.7071 -0.7071 0.7071 421.9627 -233.6604)" class="st3" width="49" height="4.3"/>
	
		<rect x="500.9" y="395.2" transform="matrix(3.736525e-02 0.9993 -0.9993 3.736525e-02 891.9691 -131.172)" class="st3" width="26.3" height="4.3"/>
	
		<rect x="509.5" y="406.9" transform="matrix(3.736525e-02 0.9993 -0.9993 3.736525e-02 901.0615 -117.2773)" class="st3" width="3.9" height="4.3"/>
</g>
</svg>
