<?xml version="1.0" encoding="utf-8"?>
<!-- Generator: Adobe Illustrator 22.1.0, SVG Export Plug-In . SVG Version: 6.00 Build 0)  -->
<svg version="1.1" xmlns="http://www.w3.org/2000/svg" xmlns:xlink="http://www.w3.org/1999/xlink" x="0px" y="0px"
	 viewBox="0 0 1366 768" style="enable-background:new 0 0 1366 768;" xml:space="preserve">
<style type="text/css">
	.st0{fill:#FFFFFF;}
	.st1{fill:#372248;}
</style>
<g id="Laag_2">
</g>
<g id="Laag_1">
	<g>
		<path class="st0" d="M971.5,541.2v108.3c0,0-4.2,33.3-26,33.3H418.6c-21.9,0-26-33.3-26-33.3V541.2
			C438.3,299.6,557,307.9,557,307.9v-38.5c-2.1-33.3,10.4-37.5,40.6-43.7c30.2-6.2,42.7,29.2,42.7,29.2v53.1H682l0,1h0.1l0-1h41.7
			v-53.1c0,0,12.5-35.4,42.7-29.2c30.2,6.2,42.7,10.4,40.6,43.7v38.5C807,307.9,925.7,299.6,971.5,541.2z"/>
		<path class="st0" d="M1010,215.1v56.8c0,16.2-10.7,30.5-26.3,34.8c-3.5,1-5.9,1.2-5.9,1.2h-95.3c-5.2,0-10.3-1.2-14.9-3.7
			c-31.8-17.1-34.5-54.6-34.5-54.6c-23.8-115.2-118.1-119-146.8-117.4c0,0,0,0,0,0c-2.7,0.2-5.5,0.2-8.2,0c0,0,0,0,0,0
			c-28.7-1.6-123.1,2.1-146.8,117.4c0,0-2.7,37.5-34.5,54.6c-4.6,2.5-9.7,3.7-14.9,3.7h-95.3c0,0-2.8-0.2-6.7-1.4
			c-15.3-4.5-25.6-18.7-25.6-34.6v-56.8c0-8.6,2.8-16.9,8-23.8C389,155.7,486.6,49.1,682,57.8c195.4-8.7,293,97.8,320,133.5
			C1007.2,198.2,1010,206.6,1010,215.1z"/>
		<circle class="st1" cx="682" cy="506.8" r="119.7"/>
		<circle class="st0" cx="682.5" cy="506.3" r="80.7"/>
	</g>
</g>
</svg>
